# xmcd
#
# Track frame offsets:
#	150
#	23658
#	45310
#	76378
#	100593
#	120395
#	147430
#	171098
#	188260
#	211385
#	242418
#	261133
#	287658
#
# Disc length: 4129 seconds
#
# Revision: 1
# Processed by: cddbd v1.4PL0 Copyright (c) Steve Scherf et al.
# Submitted via: EasyCDDAExtractor 5.0.7
#
DISCID=9e101f0d
DTITLE=Various Artist - Doi Tuyen Pham
DYEAR=1900
DGENRE=
TTITLE0=Thanh Thuy - Nghe nhung tan phai
TTITLE1=Hai Ly - Mot doi yeu anh
TTITLE2=Lynda Trang Dai - Gap nhau lam ngo
TTITLE3=Xuan Son - Mua xuan cho em
TTITLE4=Kim Anh - Ngam ngui
TTITLE5=Ngoc Lan - Casablanca
TTITLE6=Khanh Ly - Hoa bien
TTITLE7=Huong Lan - May
TTITLE8=Duy Quang - Tuoi muoi ba
TTITLE9=Kieu Nga - Khi tinh yeu toi
TTITLE10=Luu Hong - Canh buom xua
TTITLE11=Nhu Mai - Nang chieu
TTITLE12=Le Thu - Hoa trang thoi cai tren ao tim
EXTD=
EXTT0=
EXTT1=
EXTT2=
EXTT3=
EXTT4=
EXTT5=
EXTT6=
EXTT7=
EXTT8=
EXTT9=
EXTT10=
EXTT11=
EXTT12=
PLAYORDER=
